<mxfile host="Electron" modified="2023-04-13T10:45:37.115Z" agent="Mozilla/5.0 (Windows NT 10.0; Win64; x64) AppleWebKit/537.36 (KHTML, like Gecko) draw.io/21.1.2 Chrome/106.0.5249.199 Electron/21.4.3 Safari/537.36" etag="kOKX0POfCpWfEGyUIJ0N" version="21.1.2" type="device">
  <diagram name="Page-1" id="241bsgXST8A_y6YQLVeH">
    <mxGraphModel dx="1036" dy="614" grid="1" gridSize="10" guides="1" tooltips="1" connect="1" arrows="1" fold="1" page="1" pageScale="1" pageWidth="850" pageHeight="1100" math="0" shadow="0">
      <root>
        <mxCell id="0" />
        <mxCell id="1" parent="0" />
        <mxCell id="OfMdzqr5ypLAUo6au57f-1" value="" style="endArrow=classic;html=1;rounded=0;exitX=0.5;exitY=1;exitDx=0;exitDy=0;entryX=0.5;entryY=0;entryDx=0;entryDy=0;" edge="1" parent="1">
          <mxGeometry width="50" height="50" relative="1" as="geometry">
            <mxPoint x="420" y="40" as="sourcePoint" />
            <mxPoint x="420" y="110" as="targetPoint" />
          </mxGeometry>
        </mxCell>
        <mxCell id="OfMdzqr5ypLAUo6au57f-2" value="" style="ellipse;whiteSpace=wrap;html=1;aspect=fixed;fillColor=#000000;fillStyle=auto;" vertex="1" parent="1">
          <mxGeometry x="400" width="40" height="40" as="geometry" />
        </mxCell>
        <mxCell id="OfMdzqr5ypLAUo6au57f-3" value="Kết thúc" style="rounded=1;whiteSpace=wrap;html=1;fontSize=16;" vertex="1" parent="1">
          <mxGeometry x="720" y="140" width="120" height="60" as="geometry" />
        </mxCell>
        <mxCell id="OfMdzqr5ypLAUo6au57f-4" value="Báo lỗi" style="rounded=1;whiteSpace=wrap;html=1;fontSize=16;" vertex="1" parent="1">
          <mxGeometry x="550" y="140" width="120" height="60" as="geometry" />
        </mxCell>
        <mxCell id="OfMdzqr5ypLAUo6au57f-5" value="" style="endArrow=classic;html=1;rounded=0;exitX=1;exitY=0.5;exitDx=0;exitDy=0;entryX=0;entryY=0.5;entryDx=0;entryDy=0;" edge="1" parent="1" source="OfMdzqr5ypLAUo6au57f-4" target="OfMdzqr5ypLAUo6au57f-3">
          <mxGeometry width="50" height="50" relative="1" as="geometry">
            <mxPoint x="400" y="180" as="sourcePoint" />
            <mxPoint x="450" y="130" as="targetPoint" />
          </mxGeometry>
        </mxCell>
        <mxCell id="OfMdzqr5ypLAUo6au57f-6" value="Kết nối?" style="rhombus;whiteSpace=wrap;html=1;fontSize=16;" vertex="1" parent="1">
          <mxGeometry x="360" y="110" width="120" height="120" as="geometry" />
        </mxCell>
        <mxCell id="OfMdzqr5ypLAUo6au57f-7" value="" style="endArrow=classic;html=1;rounded=0;exitX=1;exitY=0.5;exitDx=0;exitDy=0;entryX=0;entryY=0.5;entryDx=0;entryDy=0;" edge="1" parent="1" source="OfMdzqr5ypLAUo6au57f-6" target="OfMdzqr5ypLAUo6au57f-4">
          <mxGeometry width="50" height="50" relative="1" as="geometry">
            <mxPoint x="400" y="340" as="sourcePoint" />
            <mxPoint x="450" y="290" as="targetPoint" />
          </mxGeometry>
        </mxCell>
        <mxCell id="OfMdzqr5ypLAUo6au57f-8" value="Sai" style="text;html=1;strokeColor=none;fillColor=none;align=center;verticalAlign=middle;whiteSpace=wrap;rounded=0;fontSize=16;" vertex="1" parent="1">
          <mxGeometry x="480" y="130" width="60" height="30" as="geometry" />
        </mxCell>
        <mxCell id="OfMdzqr5ypLAUo6au57f-9" value="" style="endArrow=classic;html=1;rounded=0;exitX=0.5;exitY=1;exitDx=0;exitDy=0;" edge="1" parent="1" source="OfMdzqr5ypLAUo6au57f-6">
          <mxGeometry width="50" height="50" relative="1" as="geometry">
            <mxPoint x="440" y="270" as="sourcePoint" />
            <mxPoint x="420" y="320" as="targetPoint" />
          </mxGeometry>
        </mxCell>
        <mxCell id="OfMdzqr5ypLAUo6au57f-13" value="Đúng" style="text;html=1;strokeColor=none;fillColor=none;align=center;verticalAlign=middle;whiteSpace=wrap;rounded=0;fontSize=16;" vertex="1" parent="1">
          <mxGeometry x="430" y="230" width="60" height="30" as="geometry" />
        </mxCell>
        <mxCell id="OfMdzqr5ypLAUo6au57f-14" value="Thanh toán?" style="rhombus;whiteSpace=wrap;html=1;fontSize=16;" vertex="1" parent="1">
          <mxGeometry x="360" y="320" width="120" height="120" as="geometry" />
        </mxCell>
        <mxCell id="OfMdzqr5ypLAUo6au57f-15" value="" style="endArrow=classic;html=1;rounded=0;exitX=1;exitY=0.5;exitDx=0;exitDy=0;entryX=0;entryY=0.5;entryDx=0;entryDy=0;" edge="1" parent="1">
          <mxGeometry width="50" height="50" relative="1" as="geometry">
            <mxPoint x="480" y="379.5" as="sourcePoint" />
            <mxPoint x="550" y="379.5" as="targetPoint" />
          </mxGeometry>
        </mxCell>
        <mxCell id="OfMdzqr5ypLAUo6au57f-16" value="Tình trạng = trống" style="rounded=1;whiteSpace=wrap;html=1;fontSize=16;" vertex="1" parent="1">
          <mxGeometry x="550" y="350" width="140" height="60" as="geometry" />
        </mxCell>
        <mxCell id="OfMdzqr5ypLAUo6au57f-17" value="" style="endArrow=classic;html=1;rounded=0;exitX=1;exitY=0.5;exitDx=0;exitDy=0;" edge="1" parent="1">
          <mxGeometry width="50" height="50" relative="1" as="geometry">
            <mxPoint x="690" y="379.5" as="sourcePoint" />
            <mxPoint x="720" y="380" as="targetPoint" />
          </mxGeometry>
        </mxCell>
        <mxCell id="OfMdzqr5ypLAUo6au57f-18" value="Kết thúc" style="rounded=1;whiteSpace=wrap;html=1;fontSize=16;" vertex="1" parent="1">
          <mxGeometry x="720" y="350" width="120" height="60" as="geometry" />
        </mxCell>
        <mxCell id="OfMdzqr5ypLAUo6au57f-19" value="Sai" style="text;html=1;strokeColor=none;fillColor=none;align=center;verticalAlign=middle;whiteSpace=wrap;rounded=0;fontSize=16;" vertex="1" parent="1">
          <mxGeometry x="480" y="340" width="60" height="30" as="geometry" />
        </mxCell>
        <mxCell id="OfMdzqr5ypLAUo6au57f-20" value="" style="endArrow=classic;html=1;rounded=0;exitX=0.5;exitY=1;exitDx=0;exitDy=0;" edge="1" parent="1">
          <mxGeometry width="50" height="50" relative="1" as="geometry">
            <mxPoint x="419.5" y="440" as="sourcePoint" />
            <mxPoint x="420" y="520" as="targetPoint" />
          </mxGeometry>
        </mxCell>
        <mxCell id="OfMdzqr5ypLAUo6au57f-22" value="Tình trạng = đã đặt" style="rounded=1;whiteSpace=wrap;html=1;fontSize=16;" vertex="1" parent="1">
          <mxGeometry x="350" y="520" width="140" height="60" as="geometry" />
        </mxCell>
        <mxCell id="OfMdzqr5ypLAUo6au57f-23" value="" style="endArrow=classic;html=1;rounded=0;exitX=0.5;exitY=1;exitDx=0;exitDy=0;" edge="1" parent="1" source="OfMdzqr5ypLAUo6au57f-22">
          <mxGeometry width="50" height="50" relative="1" as="geometry">
            <mxPoint x="429.5" y="450" as="sourcePoint" />
            <mxPoint x="420" y="640" as="targetPoint" />
          </mxGeometry>
        </mxCell>
        <mxCell id="OfMdzqr5ypLAUo6au57f-24" value="" style="ellipse;whiteSpace=wrap;html=1;aspect=fixed;" vertex="1" parent="1">
          <mxGeometry x="380" y="640" width="80" height="80" as="geometry" />
        </mxCell>
        <mxCell id="OfMdzqr5ypLAUo6au57f-25" value="" style="ellipse;whiteSpace=wrap;html=1;aspect=fixed;fillColor=#000000;fillStyle=auto;" vertex="1" parent="1">
          <mxGeometry x="400" y="660" width="40" height="40" as="geometry" />
        </mxCell>
        <mxCell id="OfMdzqr5ypLAUo6au57f-26" value="Đúng" style="text;html=1;strokeColor=none;fillColor=none;align=center;verticalAlign=middle;whiteSpace=wrap;rounded=0;fontSize=16;" vertex="1" parent="1">
          <mxGeometry x="430" y="440" width="60" height="30" as="geometry" />
        </mxCell>
      </root>
    </mxGraphModel>
  </diagram>
</mxfile>
